<svg width="142" height="50" viewBox="0 0 678 238" fill="none" xmlns="http://www.w3.org/2000/svg">
<path d="M114.644 147.882C117.804 145.532 120.704 143.112 123.884 141.122C125.234 140.282 127.154 140.332 128.824 140.052C132.884 139.352 137.384 137.292 140.904 138.372C145.682 139.835 149.867 142.789 152.844 146.802C154.234 148.852 150.234 148.182 148.674 147.182C142.204 143.042 135.294 142.772 128.234 144.992C123.897 146.308 119.676 147.981 115.614 149.992C113.814 150.912 112.944 153.482 111.264 154.812C109.204 156.442 106.894 158.222 104.434 158.762C99.2441 159.902 93.8441 160.062 88.6041 161.022C82.2141 162.182 73.6041 155.932 74.6741 149.672C75.2241 146.332 77.9841 142.232 80.9141 140.672C84.7141 138.672 89.1041 134.002 94.2541 138.802C94.5432 138.939 94.8572 139.016 95.1769 139.028C95.4967 139.04 95.8155 138.987 96.1141 138.872C104.804 136.032 109.284 142.082 114.644 147.882Z" fill="#6560AB"/>
<path d="M238.064 127.522C240.244 129.391 242.305 131.395 244.234 133.522C248.544 138.862 252.644 144.362 256.734 149.862C258.784 152.622 256.354 154.502 254.544 154.922C251.161 155.85 247.619 156.048 244.154 155.502C235.784 153.752 227.554 151.272 219.514 149.152C216.134 154.512 217.454 162.572 221.704 165.662C222.592 166.3 223.673 166.61 224.764 166.542C232.534 165.542 240.264 164.212 248.034 163.212C255.034 162.312 262.094 161.692 269.124 160.912C270.844 160.722 272.534 160.222 274.244 160.152C275.971 160.042 277.679 160.569 279.044 161.632C261.274 165.242 243.094 165.192 225.394 168.682C225.794 170.122 226.214 171.682 226.654 173.252C244.184 175.472 262.104 169.472 279.654 174.752C280.124 174.892 280.294 176.002 281.204 177.912C276.134 177.202 272.074 176.312 267.974 176.122C262.214 175.842 256.424 175.902 250.664 176.122C244.904 176.342 239.004 176.822 233.204 177.432C231.144 177.642 229.204 178.582 227.144 179.182C226.384 179.402 225.334 179.992 224.904 179.702C219.274 175.832 212.904 179.592 207.124 178.292L206.854 176.992C210.104 176.262 213.374 175.572 216.614 174.782C218.082 174.52 219.495 174.013 220.794 173.282C221.174 173.032 220.874 170.632 220.394 170.442C218.869 169.729 217.177 169.452 215.504 169.642C210.034 170.712 204.624 172.132 199.194 173.412L198.594 171.152L217.064 166.542C216.864 165.612 216.734 164.882 216.554 164.162C215.554 160.162 214.024 156.572 213.794 152.162C213.564 147.752 209.304 143.392 206.704 139.092C205.944 137.812 204.814 136.762 204.414 135.092C212.414 135.272 210.834 144.442 215.834 147.402C215.954 146.972 216.084 146.532 216.214 146.102C218.574 146.702 221.044 148.102 223.284 147.762C230.624 146.762 236.584 150.162 242.994 152.542C244.424 153.082 247.274 151.432 248.584 149.982C249.254 149.252 248.364 146.472 247.474 145.072C244.674 140.692 241.474 136.542 238.534 132.262C237.854 131.134 237.249 129.961 236.724 128.752L238.064 127.522Z" fill="#6560AB"/>
<path d="M192.204 136.902C192.342 137.546 192.53 138.177 192.764 138.792C198.974 152.092 193.404 155.222 179.954 156.742C173.794 157.432 167.074 157.202 161.144 153.662C158.144 151.852 156.314 149.792 156.514 146.142C156.527 144.466 157.062 142.836 158.044 141.477C159.026 140.119 160.407 139.1 161.994 138.562C170.057 135.204 178.952 134.381 187.494 136.202C188.864 136.512 190.294 136.632 192.204 136.902Z" fill="#6560AB"/>
<path d="M98.0441 199.962L92.5641 204.012L91.5641 200.832L85.4441 201.662C88.1341 197.442 89.9341 197.112 94.6941 199.602L100.694 192.602C110.274 208.302 121.424 218.922 141.604 216.942C160.534 215.082 173.154 206.842 180.384 189.712C181.011 189.958 181.625 190.235 182.224 190.542C183.044 191.042 183.824 191.592 184.304 191.902C182.304 194.972 180.774 197.382 179.234 199.802C171.924 211.252 162.984 219.802 148.004 219.282C141.394 219.032 134.744 219.942 128.104 220.282C122.404 220.552 117.534 218.282 113.424 214.632C108.214 209.952 103.334 205.032 98.0441 199.962Z" fill="#6560AB"/>
<path d="M216.984 187.632L213.164 190.382L210.574 184.322L209.294 184.832L210.364 188.832L198.414 182.342C198.774 185.422 198.994 187.412 199.264 189.762H190.604L189.814 188.632L194.814 184.092C194.314 182.502 193.814 180.752 193.234 179.002L194.054 177.952L200.874 181.302C204.004 176.582 207.964 181.042 211.654 181.112C222.844 181.312 230.414 189.922 239.934 194.112C247.364 197.382 254.044 202.422 260.934 206.922C262.154 207.722 262.744 209.692 263.254 211.242C263.414 211.722 262.494 212.862 261.814 213.242C261.384 213.452 260.244 212.942 259.814 212.432C251.634 202.052 240.274 196.362 228.524 191.332C226.134 190.332 223.204 190.622 220.634 189.932C219.244 189.482 218.034 188.322 216.984 187.632Z" fill="#6560AB"/>
<path d="M132.174 186.322C139.614 180.532 147.624 183.372 155.974 182.692C150.074 194.452 139.204 195.832 132.174 186.322Z" fill="#6560AB"/>
<path d="M19.7741 102.432C16.3141 104.185 12.8508 105.932 9.38412 107.672L8.57413 105.672L19.4141 101.032L19.7741 102.432Z" fill="#6560AB"/>
<path d="M108.424 74.1322C109.424 73.7622 110.424 72.9322 111.334 73.0822C130.684 76.2722 150.184 75.1422 169.634 75.0822C175.884 75.0822 182.124 73.6722 188.394 73.1922C192.655 72.917 196.927 72.857 201.194 73.0122C202.194 73.0122 203.194 73.9622 204.194 74.4722C203.304 75.4022 202.544 76.9322 201.514 77.1422C198.757 77.5915 195.968 77.8156 193.174 77.8122C178.174 78.2222 163.094 78.6222 148.054 78.9222C141.624 79.0522 135.194 79.1022 128.784 78.9222C123.584 78.7622 118.384 78.3422 113.224 77.7022C111.514 77.4922 109.924 76.2522 108.284 75.4822C108.324 75.0222 108.374 74.5722 108.424 74.1322Z" fill="#6560AB"/>
<path d="M91.5541 81.4022C85.3141 87.8122 78.7441 83.7122 71.1141 76.6022L91.5541 81.4022Z" fill="#6560AB"/>
<path d="M112.804 81.1521C108.534 81.9821 104.194 83.8322 99.6241 80.5722C104.784 76.5122 108.714 81.1021 112.804 81.1521Z" fill="#6560AB"/>
<path d="M60.1241 69.5122C61.0241 66.4522 61.9141 63.3922 62.8541 60.1422C66.5141 62.3722 65.4841 66.6322 60.1241 69.5122Z" fill="#6560AB"/>
<path fill-rule="evenodd" clip-rule="evenodd" d="M98.2481 8.94138C99.5481 8.63299 100.827 8.31767 102.089 8.00627C102.108 8.00175 102.126 7.99701 102.144 7.99227C102.153 7.9899 102.163 7.98753 102.172 7.98519C102.181 7.98285 102.19 7.98054 102.199 7.97828C106.864 6.82788 111.313 5.73648 115.824 5.25216C116.685 5.15795 117.558 5.02533 118.439 4.89154C122.422 4.28687 126.562 3.65816 130.394 6.44217C131.404 7.18217 133.484 7.03217 134.844 6.59217C143.894 3.72217 152.944 4.04217 162.184 5.65217C165.704 6.26543 169.288 6.49132 172.874 6.71731C175.135 6.85983 177.397 7.00239 179.644 7.24217C183.83 7.651 187.963 8.49173 191.976 9.7509M98.2481 8.94138C99.567 8.62842 100.864 8.30861 102.144 7.99227C102.153 7.9899 102.163 7.98753 102.172 7.98519C102.181 7.98285 102.19 7.98054 102.199 7.97828C106.863 6.8259 111.31 5.72724 115.814 5.22217C116.675 5.12796 117.548 4.99534 118.429 4.86155C122.412 4.25687 126.552 3.62817 130.384 6.41217C131.384 7.15217 133.474 7.00216 134.834 6.56216C143.884 3.69216 152.934 4.01218 162.174 5.62218C165.784 6.25111 169.462 6.48449 173.139 6.71787C175.309 6.85556 177.478 6.99325 179.634 7.21217C183.844 7.6233 188 8.4712 192.034 9.74217M96.1494 6.61075C96.1359 6.72633 96.1222 6.84374 96.1082 6.9639L96.1081 6.96507" fill="#6560AB"/>
<path fill-rule="evenodd" clip-rule="evenodd" d="M55.4341 189.282C56.6141 194.192 59.4341 194.202 62.6841 192.282C64.0349 191.478 65.2829 190.497 66.5289 189.517C67.5152 188.742 68.5003 187.967 69.5341 187.282C70.8187 186.522 72.1554 185.854 73.5341 185.282C73.8334 185.731 74.1227 186.18 74.4119 186.629L74.4141 186.632L59.3541 199.042C70.8941 197.532 78.9041 191.892 84.2441 182.042L86.0341 183.502C85.8928 183.926 85.7801 184.37 85.6675 184.813C85.4215 185.781 85.176 186.748 84.6341 187.502C83.5257 189.048 82.2477 190.465 80.9693 191.882C80.4369 192.472 79.9045 193.062 79.3841 193.662C79.2558 193.812 79.0872 193.967 78.918 194.121C78.5469 194.461 78.1729 194.803 78.2141 195.112C78.7444 199.331 76.3597 200.733 73.7028 202.295C72.8522 202.795 71.9738 203.312 71.1541 203.942C67.387 206.844 64.2718 210.572 61.1488 214.309C59.3641 216.444 57.577 218.583 55.6641 220.572C51.7279 224.666 47.5228 228.664 43.3298 232.651L43.3268 232.653C41.9177 233.993 40.5099 235.332 39.1141 236.672C38.9604 236.82 38.688 236.849 38.115 236.91C37.7186 236.952 37.1784 237.009 36.4341 237.132C36.949 236.351 37.3718 235.649 37.7533 235.015C38.4612 233.839 39.0269 232.899 39.7741 232.132C43.3942 228.44 47.0598 224.782 50.7266 221.123L50.728 221.122C54.151 217.706 57.5751 214.289 60.9641 210.842C62.325 209.462 63.5659 207.961 64.8551 206.403C65.5364 205.579 66.2311 204.739 66.9641 203.892C56.8541 201.622 49.5141 205.432 42.8041 211.892C36.7939 217.67 30.5551 223.219 24.3163 228.768C22.5104 230.374 20.7045 231.98 18.9041 233.592C16.9041 235.392 14.6641 236.432 11.8341 233.532L50.4841 202.332L44.3041 195.262L19.5841 208.202C19.187 208.41 18.7949 208.661 18.4031 208.911C17.5516 209.456 16.7013 209.999 15.8041 210.102C14.6949 210.229 13.5414 209.961 12.3885 209.693C11.8991 209.579 11.4099 209.466 10.9241 209.382C11.2488 208.996 11.5472 208.556 11.8449 208.116C12.4639 207.203 13.08 206.294 13.9241 205.882C19.7225 203.091 25.5653 200.401 31.4063 197.712L31.4074 197.711L31.4085 197.711L31.4095 197.71C34.7546 196.17 38.099 194.631 41.4341 193.072C42.9372 192.257 44.3959 191.362 45.8041 190.392C45.2616 189.985 44.8574 189.667 44.5085 189.392C44.2143 189.16 43.9595 188.959 43.6941 188.762C37.8841 184.492 37.6441 183.522 41.6241 177.762C46.9141 170.102 47.5641 162.182 42.9441 153.322C40.9441 154.322 38.9441 155.322 36.9441 156.392C35.5479 157.121 34.1545 157.856 32.7608 158.591L32.756 158.593C30.5179 159.773 28.2786 160.954 26.0241 162.112C24.4715 162.907 22.9071 163.677 21.3432 164.448L21.342 164.448L21.3406 164.449C18.5943 165.802 15.8497 167.154 13.1741 168.632C9.54413 170.632 3.84412 169.442 0.224121 165.302C1.5395 164.019 2.77515 162.656 3.92413 161.222C4.83387 159.801 5.64253 158.317 6.34413 156.782C1.54413 153.932 1.67412 153.452 5.25412 149.452C8.18553 146.182 10.9323 142.742 13.8399 139.1C15.0486 137.586 16.2851 136.038 17.5741 134.452C16.2523 134.104 15.0336 133.791 13.8916 133.498L13.8853 133.497C10.9004 132.731 8.43877 132.1 6.02412 131.312C5.58068 131.169 5.33674 130.422 5.17889 129.939C5.11604 129.747 5.06684 129.596 5.02412 129.542L24.1941 104.962C19.8041 97.2322 19.8341 96.9022 25.1941 94.3722L28.0041 98.2122L40.9341 79.8222C36.1541 76.2122 37.0541 73.5222 40.4141 70.1122C42.5373 67.9595 43.646 64.5991 44.6424 61.579L44.6941 61.4222C45.0202 60.4261 45.3468 59.43 45.6735 58.4339C49.0135 48.2487 52.3576 38.051 55.1541 27.7122C56.3183 23.4257 56.9164 18.9853 57.5853 14.0193C57.9105 11.6053 58.2524 9.0672 58.6841 6.36216C59.6324 6.15501 60.7287 5.93424 61.9272 5.6929C64.8365 5.10705 68.3479 4.39996 71.8041 3.47216C81.5308 0.866538 91.3987 0.987942 101.265 1.10932C105.295 1.1589 109.324 1.20848 113.344 1.07217C116.317 0.974535 119.292 0.769672 122.265 0.564922C127.514 0.203461 132.759 -0.157649 137.974 0.0721704C146.119 0.470159 154.243 1.38838 162.365 2.30635C165.671 2.68003 168.977 3.05367 172.284 3.39216C174.088 3.5778 175.893 3.75462 177.699 3.93148C183.092 4.45962 188.488 4.98804 193.844 5.75216C197.227 6.39048 200.549 7.3172 203.774 8.52217C205.924 9.22217 207.144 10.2522 206.154 13.1122C205.534 14.9322 206.084 17.3922 206.714 19.3722C207.646 22.322 208.679 25.244 209.711 28.1646C211.446 33.0757 213.18 37.983 214.434 43.0122C215.324 46.5776 215.684 50.278 216.043 53.9767C216.318 56.8032 216.593 59.6286 217.104 62.3922C217.454 64.2522 219.354 66.1822 221.044 67.3922C224.174 69.5822 227.044 75.5322 226.764 79.5322C226.684 80.7759 227.065 82.0505 227.54 83.6445C227.779 84.4471 228.043 85.3308 228.284 86.3322L230.054 83.1022C232.01 85.6614 233.962 88.2263 235.914 90.7926C241.272 97.8327 246.637 104.883 252.104 111.852C252.862 112.825 253.888 113.584 254.919 114.346C255.806 115.003 256.698 115.662 257.424 116.462L257.428 116.466C258.837 117.995 260.614 119.924 260.694 121.752C260.814 124.362 258.604 125.472 255.784 125.562C252.929 125.641 250.075 125.845 247.223 126.049C243.932 126.284 240.643 126.519 237.354 126.562C232.559 126.638 227.759 126.597 222.96 126.556C216.941 126.505 210.923 126.454 204.914 126.632C187.514 127.152 170.124 127.952 152.734 128.862C142.334 129.412 131.924 130.122 121.574 131.282C116.636 131.838 111.728 132.649 106.821 133.461C102.276 134.213 97.7316 134.964 93.1641 135.512C81.2741 136.942 69.4441 137.932 57.4141 135.142C52.8817 134.087 48.0602 134.256 43.244 134.424C41.1213 134.499 38.9996 134.573 36.9041 134.542C36.1601 134.542 35.4082 134.587 34.6571 134.631C33.1571 134.72 31.6601 134.809 30.2341 134.542C24.2941 133.352 20.7541 136.292 18.0041 140.972C17.5586 141.986 16.9201 142.903 16.1241 143.672C12.0341 146.722 11.1241 150.672 12.3541 155.752C16.4441 153.492 20.3541 153.592 24.3541 157.412L29.7041 151.012C33.7041 154.182 37.3641 152.732 41.2241 150.072C44.5678 147.935 48.0754 146.066 51.7141 144.482C52.9497 144.046 54.2315 143.754 55.5341 143.612L56.3941 144.942C55.6988 145.61 55.0144 146.291 54.3303 146.972C52.7514 148.543 51.1735 150.113 49.4641 151.522C47.1841 153.402 46.6941 155.022 47.9641 157.992C50.8841 164.752 49.0941 171.282 45.2541 177.832L56.6541 184.542C57.1109 184.287 57.6186 184.003 58.171 183.693L58.1978 183.678L58.2556 183.646L58.276 183.634L58.2769 183.634C62.0575 181.515 67.8723 178.256 73.7841 175.162C74.6347 174.713 75.7169 174.718 76.81 174.722C77.3232 174.725 77.8389 174.727 78.3341 174.682C78.0509 175.153 77.8051 175.69 77.5598 176.226C77.0341 177.374 76.5104 178.518 75.6241 179.002C70.8687 181.654 66.0013 184.055 61.0101 186.516C59.1685 187.425 57.31 188.342 55.4341 189.282ZM22.644 127.873L22.6454 127.873C29.0726 128.105 35.1404 128.324 41.1841 128.852C44.9526 129.181 48.7023 129.751 52.4514 130.321C56.4524 130.929 60.4526 131.537 64.4741 131.852C71.0318 132.324 77.6142 132.341 84.1741 131.902C90.444 131.532 96.6982 130.874 102.948 130.216C105.32 129.966 107.692 129.716 110.064 129.482C114.804 129.016 119.543 128.514 124.28 128.012C134.874 126.89 145.464 125.768 156.064 125.042C164.355 124.473 172.67 124.316 180.986 124.159C185.83 124.067 190.674 123.975 195.514 123.802C199.07 123.678 202.624 123.456 206.178 123.235C210.349 122.975 214.52 122.715 218.694 122.612C223.355 122.498 228.108 122.521 232.867 122.545C236.001 122.56 239.138 122.576 242.254 122.552C244.282 122.668 246.313 122.42 248.254 121.822C249.075 121.488 249.649 120.53 250.222 119.574C250.473 119.156 250.723 118.737 250.994 118.372L246.224 118.102C246.186 118.015 246.146 117.922 246.102 117.823C246.022 117.641 245.934 117.44 245.838 117.224L245.831 117.209C245.483 116.421 245.046 115.434 244.634 114.442C244.141 113.287 243.707 112.087 243.273 110.888C242.318 108.248 241.363 105.608 239.774 103.442C236.313 98.655 232.576 94.0688 228.841 89.4858C226.803 86.9843 224.766 84.4838 222.774 81.9522C221.966 80.778 221.254 79.5407 220.644 78.2522C221.696 77.5584 222.535 76.9984 223.3 76.487C223.859 76.1138 224.378 75.7665 224.914 75.4122C221.596 75.7498 218.749 76.8002 215.927 77.8412L215.925 77.842C215.405 78.0339 214.885 78.2255 214.364 78.4122C213.903 78.5775 213.303 78.368 212.707 78.1595C212.438 78.0653 212.169 77.9713 211.914 77.9122C212.037 77.6486 212.14 77.3587 212.243 77.0684C212.476 76.4116 212.709 75.7528 213.174 75.3922C214.896 74.2962 216.694 73.3238 218.554 72.4822L208.554 66.1722L212.834 61.7022C212.632 60.4775 212.44 59.1605 212.241 57.7826C211.77 54.5363 211.25 50.9523 210.414 47.4422C210.058 45.9551 209.773 44.4536 209.488 42.9527C208.563 38.0849 207.639 33.2236 204.314 28.8822C202.46 26.4471 201.612 23.2304 200.768 20.0265C200.42 18.7042 200.072 17.3842 199.654 16.1222C198.794 13.5122 197.334 13.0322 194.584 13.4222C194 13.5047 193.416 13.5876 192.832 13.6705L192.827 13.6713C184.846 14.804 176.824 15.9427 168.784 16.2222C160.834 16.4904 152.876 16.4389 144.915 16.3874C139.519 16.3524 134.122 16.3175 128.724 16.3822C126.568 16.4043 124.406 16.6224 122.245 16.8405C119.525 17.1149 116.807 17.3892 114.104 17.2722C109.027 17.0542 103.965 16.4851 98.9039 15.9162C96.7675 15.676 94.6312 15.4359 92.4941 15.2222C90.3395 15.0067 88.1802 14.7713 86.0175 14.5356C81.1541 14.0055 76.2741 13.4737 71.3941 13.1622C70.7312 13.1209 70.1014 13.071 69.5051 13.0238C64.1835 12.6027 61.5313 12.3928 61.7741 20.3422C61.7827 21.1298 61.6954 21.9156 61.5141 22.6822C60.8749 25.4007 60.2292 28.1176 59.5836 30.8342L59.5829 30.8369C58.6328 34.8346 57.6828 38.8316 56.7541 42.8322C56.5841 43.5422 56.3241 44.6622 56.6741 45.0022C59.1087 47.3621 58.2978 49.8091 57.4474 52.3755C57.3861 52.5604 57.3246 52.746 57.2641 52.9322C56.4643 55.3855 55.7593 57.8704 54.9609 60.6846C54.5715 62.0573 54.1599 63.5083 53.7041 65.0722C55.1751 63.4173 56.2025 62.2223 57.2279 61.0295C57.5967 60.6005 57.9653 60.1718 58.3541 59.7222C60.5541 66.0322 58.8941 68.8522 54.3541 68.5222C52.5582 68.3989 50.6969 69.0597 48.8711 69.7081C48.3281 69.9009 47.7882 70.0926 47.2541 70.2622C46.9941 70.3522 46.9041 72.2622 47.1041 72.3122C49.1587 73.2638 51.3313 73.9364 53.5641 74.3122C56.8531 74.6131 60.1625 74.6933 63.4705 74.7734C64.7791 74.8051 66.0874 74.8368 67.3941 74.8822C67.419 75.2659 67.4415 75.6472 67.4639 76.0285L67.4641 76.0322L67.4644 76.0359C67.4868 76.4171 67.5092 76.7984 67.5341 77.1822C62.0389 79.8487 56.115 79.596 49.9703 79.3339C47.7733 79.2402 45.5481 79.1453 43.3041 79.1822V85.0522C43.3041 90.2922 42.3041 94.8122 36.3041 96.5322C35.2613 96.8242 34.4272 98.0907 33.6742 99.2341C33.5247 99.4612 33.3783 99.6834 33.2341 99.8922C31.8087 101.964 30.6955 104.218 29.5804 106.477C27.6759 110.334 25.7657 114.203 22.2841 117.192C20.0689 119.084 18.3127 121.535 16.4946 124.071C15.6701 125.222 14.8328 126.39 13.9341 127.532C16.9258 127.666 19.8196 127.771 22.644 127.873ZM18.2741 160.122C18.2143 159.796 18.1514 159.472 18.0888 159.15C18.0757 159.082 18.0626 159.015 18.0496 158.947C18.0105 158.745 17.9717 158.544 17.9341 158.342C17.3694 158.342 16.7975 158.312 16.2274 158.282C14.7785 158.205 13.3415 158.129 12.0641 158.552C11.6877 158.682 11.6693 159.882 11.6454 161.443C11.6324 162.288 11.6178 163.238 11.5441 164.182L18.2741 160.122ZM73.4941 7.22217L96.4341 4.13217L96.4305 4.164C96.3254 5.09439 96.2427 5.80824 96.1494 6.61075L96.1082 6.9639L96.1081 6.96507L96.1051 6.99055L96.1047 6.99463C96.0246 7.6823 95.9339 8.46186 95.8141 9.50217L95.8177 9.50138C96.6368 9.31907 97.4465 9.13156 98.2481 8.94138C99.5481 8.63299 100.827 8.31767 102.089 8.00627C102.108 8.00175 102.126 7.99701 102.144 7.99227L102.172 7.98519L102.199 7.97828C106.864 6.82788 111.313 5.73648 115.824 5.25216C116.685 5.15795 117.558 5.02533 118.439 4.89154C122.422 4.28687 126.562 3.65816 130.394 6.44217C131.404 7.18217 133.484 7.03217 134.844 6.59217C143.894 3.72217 152.944 4.04217 162.184 5.65217C165.704 6.26543 169.288 6.49132 172.874 6.71731C175.135 6.85983 177.397 7.00239 179.644 7.24217C183.83 7.651 187.963 8.49173 191.976 9.7509L192.044 9.77217C152.444 15.7622 113.024 12.8122 73.6141 9.45218L73.4941 7.22217Z" fill="#6560AB"/>
<path d="M392.371 114.841C388.051 123.23 384.958 130.66 380.612 137.284C375.845 144.585 365.504 146.516 354.691 142.885C343.248 139.048 333.557 131.235 327.377 120.864C320.922 110.212 322.558 97.9356 326.201 86.2348C326.852 84.1376 328.028 82.1171 328.271 79.9816C329.243 71.5928 332.579 67.6413 340.567 65.6337C344.867 64.6422 349.105 63.3997 353.259 61.9124C364.763 57.5646 371.818 60.3139 377.366 71.5672C372.879 78.6772 372.176 78.8818 363.753 75.4803C354.627 71.7974 343.175 74.956 338.829 83.4727C332.911 95.0584 331.377 107.769 337.359 119.534C343.929 132.488 351.751 137.974 367.128 131.913C370.131 130.724 372.509 127.859 375.078 125.647C379.296 122.015 383.411 118.255 387.668 114.662C388.09 114.304 389.163 114.688 392.371 114.841Z" fill="#6560AB"/>
<path d="M434.704 152.898C435.574 140.302 435.612 127.808 428.314 116.734C427.035 114.7 424.3 112.092 422.421 112.232C419.865 112.411 415.749 114.675 415.404 116.619C413.883 125.665 412.855 134.788 412.324 143.946C412.03 147.923 412.886 151.977 412.861 155.992C412.861 156.99 411.467 157.987 410.713 158.984C409.882 157.885 408.451 156.862 408.323 155.685C406.214 137.13 404.489 118.537 402.226 100.007C400.769 88.1402 398.123 76.4138 396.909 64.5467C396.628 61.7462 399.465 57.9099 401.881 55.851C403.389 54.5722 407.543 54.8152 409.435 56.0428C411.327 57.2705 412.49 60.493 412.835 62.9866C413.18 65.4802 411.723 68.1017 411.685 70.6593C411.544 82.2706 411.685 93.9075 411.685 104.815C415.609 104.01 419.354 102.399 422.881 102.782C426.409 103.166 430.793 104.688 432.749 107.258C435.19 110.493 436.2 115.237 436.66 119.445C437.631 128.268 438.002 137.169 438.232 146.056C438.296 148.473 437.031 150.928 436.366 153.371L434.704 152.898Z" fill="#6560AB"/>
<path d="M525.723 182.731C525.723 177.923 524.675 172.821 525.966 168.396C527.883 161.811 529.378 155.609 528.612 148.562C527.883 141.862 529.89 134.88 529.557 128.102C529.148 120.506 530.836 112.488 526.324 105.416C524.279 102.207 525.046 98.7413 528.305 97.9356C530.861 97.3218 534.223 99.0226 536.843 100.416C538.121 101.133 538.594 103.46 539.399 104.918C542.863 104.483 546.007 103.92 549.177 103.754C550.804 103.748 552.414 104.079 553.907 104.726C558.789 106.657 564.669 118.537 564.017 124.879C563.756 128.348 562.378 131.639 560.089 134.258C557.801 136.877 554.726 138.683 551.325 139.406C546.621 140.468 543.196 138.447 542.378 134.598C544.397 135.634 547.081 138.204 549.024 137.731C552.027 136.737 554.607 134.76 556.348 132.117C559.428 127.603 557.958 118.652 554.213 114.509C550.468 110.365 543.809 111.184 542.109 116.721C539.246 126.018 536.996 135.532 534.747 145.007C532.957 152.412 531.385 159.867 529.928 167.348C529.263 170.685 529.097 174.112 528.65 177.488C528.433 179.266 528.19 181.031 527.96 182.808L525.723 182.731Z" fill="#6560AB"/>
<path d="M499.022 139.215C510.372 133.204 509.976 124.918 505.975 116.849C504.85 114.56 500.863 111.925 498.792 112.322C496.082 112.846 493.015 115.813 491.698 118.498C487.621 126.887 486.585 136.146 485.077 145.289C483.518 154.752 480.795 164.01 478.98 173.422C478.431 176.299 479.223 179.445 479.402 182.463L477.293 183C476.565 180.634 475.095 178.192 475.274 175.903C475.593 171.951 477.357 168.141 477.83 164.189C478.75 155.634 479.415 147.041 479.773 138.447C480.092 130.775 479.977 122.961 479.773 115.225C479.553 113.001 478.934 110.835 477.945 108.831C476.271 104.79 474.724 100.48 478.725 97.3218C481.281 95.3141 487.672 99.7771 488.95 102.987C495.801 104.266 503.01 103.882 507.701 107.104C511.356 109.662 512.711 116.516 513.644 121.721C515.012 129.931 510.436 139.777 499.022 139.215Z" fill="#6560AB"/>
<path d="M633.23 143.703C620.218 153.141 614.837 148.882 605.11 140.378C602.789 138.428 600.919 135.997 599.627 133.254C598.335 130.511 597.653 127.52 597.628 124.487C597.602 121.455 598.234 118.453 599.479 115.689C600.725 112.924 602.554 110.462 604.842 108.473C607.59 106.03 612.345 103.716 615.553 104.381C622.779 105.81 629.716 108.433 636.08 112.143C642.049 115.749 641.078 121.094 634.495 123.076C627.228 125.222 619.823 126.871 612.332 128.013C607.142 128.882 605.941 130.506 608.497 135.046C612.932 142.846 619.413 145.826 627.9 144.087C629.668 143.858 631.447 143.73 633.23 143.703ZM607.807 117.13H625.88C621.074 110.11 615.463 110.11 607.82 117.13H607.807Z" fill="#6560AB"/>
<path d="M650.46 135.685C652.62 145.519 661.196 149.023 669.261 144.01C674.617 140.685 674.617 135.276 669.146 132.13C665.502 129.946 661.719 128.002 657.822 126.312C646.766 121.721 644.951 115.097 652.441 105.851C656.838 100.48 669.389 98.2681 674.259 102.283C675.818 103.562 677.953 106.312 677.48 107.399C676.323 109.435 674.414 110.936 672.163 111.58C669.734 112.322 666.769 111.312 664.353 112.079C662.221 112.919 660.424 114.438 659.241 116.401C658.908 116.951 661.043 119.521 662.462 120.621C665.644 123.102 669.146 125.161 672.419 127.539C677.723 131.376 679.282 136.491 676.943 141.759C674.604 147.028 667.178 151.389 662.129 150.123C658.617 149.204 655.211 147.918 651.968 146.286C647.175 143.946 646.791 141.222 650.46 135.685Z" fill="#6560AB"/>
<path d="M460.293 105.212C459.322 113.409 457.596 121.606 457.609 129.79C457.622 137.974 459.399 146.414 460.396 154.803L458.542 155.276C457.584 151.12 456.561 146.964 455.692 142.782C455.168 140.225 454.912 137.667 454.516 135.11C452.944 125.148 451.244 115.199 449.876 105.199C449.804 104.329 449.933 103.454 450.255 102.642C450.576 101.83 451.081 101.103 451.73 100.519C452.778 99.8155 455.117 100.365 456.548 101.043C458.595 102.223 460.544 103.566 462.377 105.058L460.293 105.212Z" fill="#6560AB"/>
<path d="M584.659 156.696C582.921 154.713 581.771 154.01 581.579 153.102C580.441 147.821 579.023 142.527 578.678 137.169C578.577 131.424 577.411 125.748 575.239 120.429C572.99 115.314 574.178 108.524 574.255 102.526C574.255 101.619 576.696 99.7771 577.566 99.9689C580.122 100.505 582.486 101.724 584.404 103.498C585.247 104.432 583.803 107.271 583.714 109.266C583.253 120.071 582.653 130.877 582.602 141.683C582.563 146.158 583.777 150.66 584.659 156.696Z" fill="#6560AB"/>
<path d="M583.841 74.5595C584.084 77.8844 584.736 80.4419 584.314 82.8077C583.892 85.1734 582.883 87.6542 581.221 88.7923C580.109 89.5468 576.952 88.575 575.546 87.3857C572.824 85.1095 569.577 82.2706 571.712 78.1146C574.434 72.7437 579.547 74.4956 583.841 74.5595Z" fill="#6560AB"/>
<path d="M460.293 73.8179C460.293 77.3089 460.766 79.7258 460.166 81.8102C459.411 84.4317 457.763 86.7975 456.497 89.2655C453.557 86.9893 450.106 85.0711 447.946 82.2066C447.192 81.222 448.918 76.759 450.592 75.8127C453.366 74.3038 457.009 74.4189 460.293 73.8179Z" fill="#6560AB"/>
<path fill-rule="evenodd" clip-rule="evenodd" d="M625.893 117.13C621.074 110.084 615.489 110.084 607.82 117.13C615.463 110.11 621.074 110.11 625.88 117.13H625.893Z" fill="#6560AB"/>
</svg>
