<svg width="62" height="27" viewBox="0 0 40 18" fill="currentColor" xmlns="http://www.w3.org/2000/svg">
<path d="M18.0533 17.418L18.0557 16.5911C15.4164 15.8685 13.5014 13.7148 13.5014 11.1702C13.5014 8.0343 16.4099 5.49194 19.9984 5.49045L20.0016 5.49045C23.5901 5.49194 26.4986 8.0343 26.4986 11.1702C26.4986 13.7148 24.5836 15.8685 21.9443 16.5911L21.9467 17.418H40L39.9977 16.6189C36.284 15.6117 33.4648 12.9 32.6445 9.52546C31.733 4.13856 26.4196 0.00135857 20.0016 0L19.9984 3.07613e-07C13.5804 0.00135888 8.26703 4.13856 7.35546 9.52546C6.53522 12.9 3.716 15.6117 0.00234042 16.6189L0 17.418H18.0533Z" fill="currentColor"/>
</svg>
