<svg width="24" height="24" viewBox="0 0 12 12" fill="none" xmlns="http://www.w3.org/2000/svg">
<path fill-rule="evenodd" clip-rule="evenodd" d="M1 11H11V1H1V11ZM6 7.05556C4.88889 7.05556 2.66667 7.66667 2.66667 8.77778V9.33333H9.33333V8.77778C9.33333 7.66667 7.11111 7.05556 6 7.05556ZM7.17851 5.51185C7.49107 5.19928 7.66667 4.77536 7.66667 4.33333C7.66667 3.89131 7.49107 3.46738 7.17851 3.15482C6.86595 2.84226 6.44203 2.66667 6 2.66667C5.55797 2.66667 5.13405 2.84226 4.82149 3.15482C4.50893 3.46738 4.33333 3.89131 4.33333 4.33333C4.33333 4.77536 4.50893 5.19928 4.82149 5.51185C5.13405 5.82441 5.55797 6 6 6C6.44203 6 6.86595 5.82441 7.17851 5.51185Z" fill="currentColor"/>
</svg>
