<svg width="40" height="40" viewBox="0 0 330 330" fill="currentColor" xmlns="http://www.w3.org/2000/svg">
<path fill-rule="evenodd" clip-rule="evenodd" d="M94.8391 224.324C91.5103 227.376 88.2022 230.41 85.71 233.67C81.3242 239.409 77.4315 251.69 74.1491 262.045C73.8248 263.068 73.5065 264.072 73.1942 265.05C71.2454 269.432 69.8205 273.334 69.18 276.25C70.3741 273.698 71.7162 269.676 73.1942 265.05C80.0081 249.727 93.2263 228.534 101.71 223.13C113.11 215.87 128.75 212.22 139.75 220.07C149.744 227.202 151.774 240.164 153.745 252.752C154.225 255.82 154.702 258.866 155.29 261.8C160.03 285.49 165.65 305.04 186.64 317.02C178.122 310.094 175.019 303.668 171.107 295.567C169.687 292.627 168.161 289.466 166.23 285.98C158.98 272.89 156.34 256.46 162.62 242.88C168.89 229.3 185.55 220.32 199.57 225.55C208.107 228.738 213.954 235.974 219.794 243.203C221.924 245.838 224.052 248.473 226.31 250.91C239.472 265.104 258.891 273.172 278.213 272.921C281.533 272.957 284.862 272.672 288.16 272.04C284.869 272.588 281.542 272.878 278.213 272.921C252.658 272.649 227.686 253.431 222.5 228.11C219.85 215.18 224.17 198.68 236.92 195.26C244.058 193.345 250.625 197.166 257.3 201.05C260.696 203.027 264.119 205.019 267.66 206.28C285.07 212.48 312.91 200.04 324.41 185.56C314.68 194.98 299.89 202.11 286.36 202.76C272.83 203.41 254.81 201.08 247.09 189.95C239.37 178.82 239.17 162.52 247.87 152.14C252.217 146.959 259.763 143.868 267.06 140.877C271.497 139.059 275.842 137.279 279.32 135.09C292.54 126.78 298.06 112.57 301.69 97.39C296.42 109.9 290.04 124 277.54 129.28C273.788 130.861 271.157 132.158 269.009 133.217C265.138 135.125 262.836 136.26 258.38 136.89C251.45 137.87 243.8 137.1 239.35 131.7C232.42 123.28 233.55 109.43 235.09 98.64C235.806 93.6178 237.301 87.2929 238.924 80.4266C243.06 62.9295 248.027 41.9159 243.05 29.98C247.22 40.54 239.04 67.85 232.26 80.43C227.16 89.89 217.3 99.57 206.08 97.86C196.1 96.34 188.88 87.83 182.72 79.83C176.713 72.0261 171.604 63.2638 166.504 54.5157C157.298 38.7254 148.118 22.9805 133.73 13C151.44 26.23 160.47 50.1 155.97 71.74C154.13 80.58 149.72 89.51 141.75 93.76C133.475 98.1717 124.717 93.2045 116.017 88.2704C112.983 86.5499 109.957 84.8334 106.96 83.52L106.222 83.1961C88.7753 75.5421 68.1401 66.4892 52.59 66.43C69.35 67.79 85.42 76.21 96.09 89.2C106.76 102.19 111.89 119.6 109.96 136.3C109.32 141.9 107.81 147.62 104.18 151.92C97.2398 160.141 85.2003 160.787 74.3339 161.369C73.8332 161.396 73.3351 161.423 72.84 161.45C63.1098 161.987 53.422 163.273 43.8871 165.281C30.9008 166.331 18.1491 170.29 7 177.04C18.8549 171.885 31.2365 167.947 43.8871 165.281C56.5261 164.26 69.3875 165.993 81.21 170.59C95.63 176.2 109.8 188.61 108.69 204.04C108.112 212.154 101.434 218.277 94.8391 224.324ZM175.612 211.31C202.822 211.31 230.31 183.888 230.31 156.743C230.31 129.598 200.218 101.31 173.008 101.31C145.798 101.31 118.31 135.661 118.31 162.806C118.31 189.951 148.402 211.31 175.612 211.31Z" fill="currentColor"/>
</svg>
